# xmcd CD database file generated by Grip 2.94
# 
# Track frame offsets:
#       182
#       10450
#       17510
#       26710
#       39885
#       51697
#       63807
#       77520
#       89727
#       102287
#       109170
#       116032
#       127367
#       137570
#       147967
#       161355
#       170370
#       182875
#       193637
#       204062
# 
# Disc length: 2903 seconds
# 
# Revision: 3
# Processed by: cddbd v1.4b41PL1 Copyright (c) Steve Scherf et al.
# Submitted via: Grip 2.94
# 
DISCID=140b5514
DTITLE=Faron Young - 20 Greatest Hits
DYEAR=1900
DGENRE=
TTITLE0=Hello Walls
TTITLE1=Going Steady
TTITLE2=I Can't Help It
TTITLE3=There Goes My Everything
TTITLE4=Tomorrow Never Comes
TTITLE5=When Two Worlds Collide
TTITLE6=The Minute You're Gone
TTITLE7=High Noon
TTITLE8=Are You Sincere
TTITLE9=I'll Trade All My Tomorrows
TTITLE10=Alone With You
TTITLE11=Walk Tall
TTITLE12=A Moment Isn't Very Long
TTITLE13=Satisfied Mind
TTITLE14=Almost Persuaded
TTITLE15=The Race Is On
TTITLE16=I Let It Slip Away
TTITLE17=Memphis
TTITLE18=I Could Never Be Ashamed of You
TTITLE19=Welcome To My World
EXTD=
EXTT0=
EXTT1=
EXTT2=
EXTT3=
EXTT4=
EXTT5=
EXTT6=
EXTT7=
EXTT8=
EXTT9=
EXTT10=
EXTT11=
EXTT12=
EXTT13=
EXTT14=
EXTT15=
EXTT16=
EXTT17=
EXTT18=
EXTT19=
PLAYORDER=
